<?xml version="1.0" encoding="iso-8859-1"?>
<!-- Uploaded to: SVG Repo, www.svgrepo.com, Generator: SVG Repo Mixer Tools -->
<svg fill="#000000" height="800px" width="800px" version="1.1" id="Layer_1" xmlns="http://www.w3.org/2000/svg" xmlns:xlink="http://www.w3.org/1999/xlink" 
	 viewBox="0 0 512 512" xml:space="preserve">
<g>
	<g>
		<path d="M482.493,255.78L240.441,110.824c-3.12-1.869-6.688-2.855-10.323-2.855h-50.848c-11.098,0-20.095,8.997-20.095,20.095
			c0,9.365-14.388,19.839-33.643,19.839c-19.256,0-33.644-10.473-33.644-19.839c0-11.098-8.997-20.095-20.095-20.095H20.095
			C8.997,107.969,0,116.966,0,128.064c0,2.74,0,217.403,0,220.375c0,11.098,8.997,20.095,20.095,20.095h15.402v15.402
			c0,11.098,8.997,20.095,20.095,20.095c11.098,0,20.095-8.997,20.095-20.095v-15.402h35.734v15.402
			c0,11.098,8.997,20.095,20.095,20.095c11.098,0,20.095-8.997,20.095-20.095v-15.402h110.671v15.402
			c0,11.098,8.997,20.095,20.095,20.095s20.095-8.997,20.095-20.095v-15.402h35.734v15.402c0,11.098,8.997,20.095,20.095,20.095
			s20.095-8.997,20.095-20.095v-15.402h35.734v15.402c0,11.098,8.997,20.095,20.095,20.095s20.095-8.997,20.095-20.095v-15.48
			C486.391,366.885,512,340.301,512,307.845C512,285.941,500.206,266.388,482.493,255.78z M40.19,148.157h15.713
			c22.869,53.042,116.331,53.181,139.261,0h29.399l29.728,17.803l-0.915,0.915c-7.848,7.848-7.848,20.57,0,28.418
			c7.846,7.848,20.57,7.849,28.418,0l8.045-8.045l23.322,13.967l-12.723,12.723c-7.848,7.848-7.848,20.57,0,28.418
			c7.846,7.848,20.57,7.849,28.418,0l19.852-19.852l79.313,47.499H40.19V148.157z M451.312,328.343H40.19v-18.151h431.488
			C470.51,320.394,461.822,328.343,451.312,328.343z"/>
	</g>
</g>
</svg>